<svg width="58" height="24" viewBox="0 0 58 24" fill="none" xmlns="http://www.w3.org/2000/svg">
<path d="M0 18.5005V0H4.17599V14.8511H11.4585V18.5005H0Z" fill="#000958"/>
<path d="M18.3571 18.9314C16.7444 18.9314 15.5052 18.416 14.6395 17.3854C13.7737 16.3548 13.3408 14.7835 13.3408 12.6716V4.61246H17.415V12.8743C17.415 13.6177 17.6272 14.2091 18.0515 14.6484C18.4759 15.0876 19.0446 15.3073 19.7576 15.3073C20.4875 15.3073 21.0817 15.0792 21.54 14.623C21.9984 14.1668 22.2275 13.5502 22.2275 12.773V4.61246H26.3017V18.5005H23.0678V15.2566C22.4907 17.7064 20.9798 18.9314 18.5353 18.9314H18.3571Z" fill="#000958"/>
<path d="M36.3223 18.982C35.117 18.982 34.0646 18.7878 33.1649 18.3992C32.2821 17.9937 31.5437 17.453 30.9495 16.7772C30.3554 16.1014 29.914 15.3411 29.6254 14.4963C29.3369 13.6346 29.1926 12.7476 29.1926 11.8353V11.3537C29.1926 10.0866 29.4557 8.90391 29.9819 7.8057C30.5252 6.7075 31.323 5.82049 32.3755 5.14467C33.445 4.46885 34.7521 4.13094 36.2968 4.13094C37.553 4.13094 38.6649 4.37592 39.6326 4.86589C40.6002 5.33896 41.3725 6.00634 41.9497 6.868C42.5269 7.72967 42.8494 8.71806 42.9173 9.83316H38.9196C38.8517 9.20803 38.597 8.68427 38.1557 8.26188C37.7143 7.8226 37.0947 7.60296 36.2968 7.60296C35.2613 7.60296 34.4974 7.97466 34.0051 8.71806C33.5129 9.44456 33.2667 10.4076 33.2667 11.6072C33.2667 12.7392 33.4959 13.6769 33.9542 14.4203C34.4295 15.1468 35.2189 15.51 36.3223 15.51C37.1371 15.51 37.7737 15.2988 38.2321 14.8765C38.6904 14.4541 38.962 13.8965 39.0469 13.2038H43.0192C42.9513 14.3527 42.6203 15.3664 42.0261 16.245C41.4489 17.1067 40.6596 17.7825 39.658 18.2724C38.6734 18.7455 37.5615 18.982 36.3223 18.982Z" fill="#000958"/>
<path d="M48.1711 18.1964L43.8933 4.61246H47.9929L51.074 15.0285H51.5832L54.1296 4.61246H58L54.1041 19.6156C53.8155 20.6969 53.4251 21.5586 52.9328 22.2006C52.4575 22.8427 51.8124 23.2988 50.9976 23.5692C50.1997 23.8564 49.1897 24 47.9674 24H45.472V20.5533H48.3748C49.0199 20.5533 49.5207 20.4266 49.8772 20.1732C50.2506 19.9197 50.5223 19.4636 50.692 18.8046L50.8193 18.1964H48.1711Z" fill="#000958"/>
</svg>
